SplineFontDB: 3.2
FontName: Salieri-Regular
FullName: Salieri
FamilyName: Salieri
Weight: Regular
Copyright: Copyright (c) 2020, Daniel Benjamin Miller.
Version: 000
ItalicAngle: 0
UnderlinePosition: -100
UnderlineWidth: 50
Ascent: 765
Descent: 235
InvalidEm: 0
LayerCount: 2
Layer: 0 0 "Back" 1
Layer: 1 0 "Fore" 0
XUID: [1021 572 -1837316912 15596597]
StyleMap: 0x0040
FSType: 0
OS2Version: 0
OS2_WeightWidthSlopeOnly: 0
OS2_UseTypoMetrics: 1
CreationTime: 1587885725
ModificationTime: 1588519906
PfmFamily: 17
TTFWeight: 400
TTFWidth: 5
LineGap: 90
VLineGap: 0
OS2TypoAscent: 0
OS2TypoAOffset: 1
OS2TypoDescent: 0
OS2TypoDOffset: 1
OS2TypoLinegap: 90
OS2WinAscent: 0
OS2WinAOffset: 1
OS2WinDescent: 0
OS2WinDOffset: 1
HheadAscent: 0
HheadAOffset: 1
HheadDescent: 0
HheadDOffset: 1
OS2FamilyClass: 258
OS2Vendor: 'PfEd'
Lookup: 4 0 1 "'liga' Standard Ligatures in Latin lookup 0" { "'liga' Standard Ligatures in Latin lookup 0-1"  } ['liga' ('DFLT' <'dflt' > 'latn' <'dflt' > ) ]
Lookup: 258 0 0 "'kern' Horizontal Kerning in Latin lookup 0" { "'kern' Horizontal Kerning in Latin lookup 0-1" [150,0,4] } ['kern' ('DFLT' <'dflt' > 'latn' <'dflt' > ) ]
MarkAttachClasses: 1
DEI: 91125
KernClass2: 19 19 "'kern' Horizontal Kerning in Latin lookup 0-1"
 1 A
 1 K
 1 L
 1 O
 1 R
 1 S
 1 T
 1 U
 1 Y
 1 f
 1 k
 1 r
 1 t
 1 y
 1 z
 6 period
 1 J
 1 o
 1 O
 1 S
 1 T
 1 U
 1 Y
 1 o
 1 t
 1 u
 1 y
 1 z
 1 A
 1 Z
 7 f fi fl
 6 period
 1 a
 1 s
 1 i
 1 l

StartChar: A
Encoding: 65 65 0
Width: 721
Flags: W
HStem: 0 26<18 72.4877 180.351 255 442 503.62 646.696 703> 262 41<232 435>
LayerCount: 2
Fore
SplineSet
232 303 m 25
 435 303 l 25
 330 597 l 25
 232 303 l 25
18 0 m 25
 18 26 l 17
 89 26 104 61 139 160 c 2
 281 558 l 2
 299 609 303 643 303 682 c 1
 327 695 345 707 361 726 c 9
 378 726 l 21
 612 86 l 2
 622 59 638 26 703 26 c 9
 703 0 l 25
 442 0 l 25
 442 26 l 17
 472 26 512 26 512 60 c 0
 512 82 450 262 450 262 c 9
 218 262 l 17
 195 191 163 106 163 81 c 0
 163 39 182 26 255 26 c 9
 255 0 l 25
 18 0 l 25
EndSplineSet
EndChar

StartChar: B
Encoding: 66 66 1
Width: 606
Flags: W
HStem: 0 42<239.209 402.434> 0 25<36 105.289> 340 45<224 348.689 354 397.684> 665 35<224 351.058> 674 26<36 104.456>
VStem: 124 100<56.076 340 385 662.714> 412 100<469.569 616.806> 472 100<107.45 277.147>
LayerCount: 2
Fore
SplineSet
224 340 m 29xa5
 224 120 l 18
 224 48 261 42 306 42 c 0
 421 42 472 103 472 193 c 24
 472 292 414 340 272 340 c 14
 224 340 l 29xa5
262 665 m 10x36
 224 665 l 25
 224 385 l 25
 256 385 l 18
 376 385 412 457 412 539 c 24
 412 615 376 665 262 665 c 10x36
36 0 m 25x65
 36 25 l 17
 100 25 124 31 124 96 c 10
 124 607 l 18
 124 659 108 674 36 674 c 9
 36 700 l 25x6d
 261 700 l 2
 409 700 512 658 512 544 c 0x36
 512 469 457 406 354 379 c 1
 477 373 572 311 572 198 c 0
 572 75 502 0 292 0 c 10xb5
 36 0 l 25x65
EndSplineSet
EndChar

StartChar: C
Encoding: 67 67 2
Width: 726
Flags: W
HStem: -11 43<350.251 552.761> 667 43<342.823 558.945>
VStem: 58 110<230.637 471.37> 657 22<156.439 188.591 519 550.769>
LayerCount: 2
Fore
SplineSet
676 519 m 25
 656 519 l 17
 642 576 608 667 445 667 c 0
 280 667 168 529 168 358 c 0
 168 175 287 32 452 32 c 0
 601 32 645 136 657 192 c 9
 679 187 l 25
 657 42 l 17
 657 42 563 -11 430 -11 c 0
 205 -11 58 146 58 348 c 4
 58 545 210 710 439 710 c 0
 559 710 666 660 666 660 c 9
 676 519 l 25
EndSplineSet
EndChar

StartChar: D
Encoding: 68 68 3
Width: 778
Flags: W
HStem: 0 42<245.625 446.854> 0 26<36 105.289> 665 35<224 392.587> 674 26<36 104.456>
VStem: 124 100<62.2587 662.714> 611 110<231.013 471.355>
LayerCount: 2
Fore
SplineSet
297 0 m 10xac
 36 0 l 29
 36 26 l 21
 100 26 124 32 124 97 c 14
 124 607 l 22
 124 659 108 674 36 674 c 13
 36 700 l 29x5c
 290 700 l 17
 688 695 721 431 721 361 c 0
 721 147 567 0 297 0 c 10xac
334 42 m 0xac
 520 42 611 175 611 341 c 24
 611 517 517 665 276 665 c 10
 224 665 l 25
 224 157 l 18
 224 57 245 42 334 42 c 0xac
EndSplineSet
EndChar

StartChar: E
Encoding: 69 69 4
Width: 610
Flags: W
HStem: 0 42<239.18 491.875> 0 26<36 105.289> 340 45<224 421.509> 665 35<224 446.008> 674 26<36 104.456>
VStem: 124 100<57.0471 340 385 662.714> 441 26<242 310.034 416.29 469> 504 21<545 596.845> 570 24<137.988 161.042>
LayerCount: 2
Fore
SplineSet
552 0 m 25x6780
 36 0 l 25
 36 26 l 17
 100 26 124 32 124 97 c 10
 124 607 l 18
 124 659 108 674 36 674 c 9
 36 700 l 25
 525 700 l 25x6f80
 525 545 l 25
 504 545 l 17
 499 617 472 665 342 665 c 10
 224 665 l 25
 224 385 l 25
 356 385 l 18
 410 385 439 402 439 469 c 9
 466 469 l 25
 467 242 l 25
 441 242 l 17
 441 318 423 340 332 340 c 10
 224 340 l 25
 224 134 l 18
 224 42 250 42 357 42 c 0xb780
 480 42 531 58 570 166 c 9
 594 159 l 25
 552 0 l 25x6780
EndSplineSet
EndChar

StartChar: F
Encoding: 70 70 5
Width: 555
Flags: W
HStem: 0 26<36 105.289 243.394 311> 340 45<224 421.509> 665 35<224 446.008> 674 26<36 104.456>
VStem: 124 100<37.5783 340 385 662.714> 441 26<242 310.034 416.29 469> 504 21<545 596.845>
LayerCount: 2
Fore
SplineSet
311 0 m 29xee
 36 0 l 29
 36 26 l 21
 100 26 124 32 124 97 c 14
 124 607 l 22
 124 659 108 674 36 674 c 13
 36 700 l 29
 525 700 l 25xde
 525 545 l 25
 504 545 l 17
 499 617 472 665 342 665 c 10
 224 665 l 29
 224 385 l 29
 356 385 l 18
 410 385 439 402 439 469 c 9
 466 469 l 25
 467 242 l 25
 441 242 l 17
 441 318 423 340 332 340 c 10
 224 340 l 29
 224 107 l 22
 224 38 240 26 311 26 c 13
 311 0 l 29xee
EndSplineSet
EndChar

StartChar: G
Encoding: 71 71 6
Width: 785
Flags: W
HStem: -12 43<345.648 570.434> 275 25<496 562.71 703.476 765> 668 43<335.689 559.952>
VStem: 58 110<229.215 475.389> 582 96<79 259.593> 673 23<508 539.622>
LayerCount: 2
Fore
SplineSet
680 658 m 9xf8
 696 508 l 25
 673 507 l 17xf4
 643 631 551 668 441 668 c 16
 280 668 168 539 168 358 c 0
 168 186 269 31 447 31 c 0
 499 31 567 44 582 59 c 9
 582 203 l 18
 582 257 579 271 496 275 c 9
 496 300 l 25
 765 300 l 25
 765 275 l 17
 680 275 678 239 678 185 c 10
 678 79 l 25
 694 62 l 25
 694 43 l 17
 624 18 533 -12 425 -12 c 0
 183 -12 58 146 58 348 c 0
 58 576 235 711 435 711 c 24
 537 711 630 675 680 658 c 9xf8
EndSplineSet
EndChar

StartChar: H
Encoding: 72 72 7
Width: 841
Flags: W
HStem: 0 26<36 105.289 242.711 312 529 598.289 735.711 805> 340 45<224 617> 674 26<36 104.456 243.544 312 529 597.456 736.544 805>
VStem: 124 100<36.2463 340 385 662.714> 617 100<36.2463 340 385 662.714>
LayerCount: 2
Fore
SplineSet
805 0 m 25
 529 0 l 25
 529 26 l 17
 593 26 617 32 617 97 c 2
 617 340 l 25
 224 340 l 25
 224 97 l 2
 224 32 248 26 312 26 c 9
 312 0 l 25
 36 0 l 25
 36 26 l 17
 100 26 124 32 124 97 c 10
 124 607 l 18
 124 659 108 674 36 674 c 9
 36 700 l 25
 312 700 l 25
 312 674 l 17
 240 674 224 659 224 607 c 2
 224 385 l 29
 617 385 l 29
 617 607 l 2
 617 659 601 674 529 674 c 9
 529 700 l 25
 805 700 l 25
 805 674 l 17
 733 674 717 659 717 607 c 10
 717 97 l 18
 717 32 741 26 805 26 c 9
 805 0 l 25
EndSplineSet
EndChar

StartChar: I
Encoding: 73 73 8
Width: 348
Flags: W
HStem: 0 26<36 105.289 242.711 312> 674 26<36 104.456 243.544 312>
VStem: 124 100<36.2463 662.714>
LayerCount: 2
Fore
SplineSet
224 607 m 2
 224 97 l 6
 224 32 248 26 312 26 c 13
 312 0 l 29
 36 0 l 29
 36 26 l 21
 100 26 124 32 124 97 c 14
 124 607 l 18
 124 659 108 674 36 674 c 9
 36 700 l 25
 312 700 l 25
 312 674 l 17
 240 674 224 659 224 607 c 2
EndSplineSet
EndChar

StartChar: J
Encoding: 74 74 9
Width: 348
Flags: W
HStem: -235 36<6.4693 86.3556> 674 26<36 104.456 243.544 312>
VStem: 124 100<-94.1904 662.714>
LayerCount: 2
Fore
SplineSet
224 50 m 6
 224 -170 121 -235 19 -235 c 4
 -31 -235 -83 -213 -83 -163 c 28
 -83 -141 -67 -122 -45 -122 c 4
 9 -122 -19 -199 42 -199 c 4
 120 -199 124 -102 124 0 c 14
 124 607 l 22
 124 659 108 674 36 674 c 13
 36 700 l 29
 312 700 l 29
 312 674 l 21
 240 674 224 659 224 607 c 6
 224 50 l 6
EndSplineSet
EndChar

StartChar: K
Encoding: 75 75 10
Width: 730
Flags: W
HStem: 0 26<36 105.289 242.711 312 650.687 700> 674 26<36 104.456 243.544 312 433 488.448 596.186 657>
VStem: 124 100<36.2463 662.714>
LayerCount: 2
Fore
SplineSet
224 607 m 0
 224 437 224 267 224 97 c 0
 224 32 248 26 312 26 c 1
 312 0 l 1
 36 0 l 1
 36 26 l 1
 100 26 124 32 124 97 c 2
 124 607 l 2
 124 659 108 674 36 674 c 1
 36 700 l 1
 312 700 l 1
 312 674 l 1
 240 674 224 659 224 607 c 0
224 340 m 5
 471 613 l 2
 475 617 492 637 492 651 c 0
 492 671 461 674 433 674 c 1
 433 700 l 1
 657 700 l 1
 657 674 l 1
 579 674 520 610 502 591 c 2
 314 385 l 5
 561 116 l 6
 620 51 657 26 700 26 c 5
 700 0 l 5
 539 0 l 5
 224 340 l 5
EndSplineSet
EndChar

StartChar: L
Encoding: 76 76 11
Width: 610
Flags: W
HStem: 0 42<245.132 491.875> 0 26<36 105.289> 674 26<36 104.456 243.544 312>
VStem: 124 100<62.7481 662.714> 570 24<137.988 161.042>
LayerCount: 2
Fore
SplineSet
36 0 m 29x78
 36 26 l 21x78
 100 26 124 32 124 97 c 14
 124 607 l 22
 124 659 108 674 36 674 c 13
 36 700 l 29
 312 700 l 29
 312 674 l 21
 240 674 224 659 224 607 c 6
 224 144 l 22
 224 52 250 42 357 42 c 4xb8
 480 42 531 58 570 166 c 13
 594 159 l 29
 552 0 l 29
 36 0 l 29x78
EndSplineSet
EndChar

StartChar: M
Encoding: 77 77 12
Width: 999
Flags: W
HStem: -10 21G<459.373 502.267> 0 26<25 75.8125 236.899 291 669 728.281 912.517 974> 674 26<66 126.735 881.15 947>
VStem: 152 46<367.688 548.727> 765 96<182.75 577> 769 100<55.4985 559.25>
LayerCount: 2
Fore
SplineSet
25 0 m 25x78
 25 26 l 17
 106 39 131 64 136 141 c 9
 152 544 l 1
 152 646 146 674 66 674 c 9
 66 700 l 25
 244 700 l 25
 512 146 l 25
 779 700 l 25
 947 700 l 25
 947 674 l 17
 866 674 861 642 861 622 c 10x78
 869 120 l 18
 870 87 879 26 974 26 c 9
 974 0 l 25
 669 0 l 25
 669 26 l 17
 742 31 767 56 769 105 c 13x74
 765 577 l 25
 493 -10 l 25
 469 -10 l 25xb8
 198 553 l 25
 189 137 l 17
 189 71 212 32 291 26 c 9
 291 0 l 25
 25 0 l 25x78
EndSplineSet
EndChar

StartChar: N
Encoding: 78 78 13
Width: 845
Flags: W
HStem: -10 21G<681.293 722> 0 26<36 103.252 229.748 297> 674 26<36 86.6646 569 639.506 759.494 830>
VStem: 136 61<46.15 557> 677 45<162 651.398>
LayerCount: 2
Fore
SplineSet
677 603 m 18x78
 677 653 633 674 569 674 c 9
 569 700 l 25
 830 700 l 25
 830 674 l 17
 766 674 722 653 722 603 c 14
 722 -10 l 29
 699 -10 l 25xb8
 197 557 l 9
 197 97 l 2
 197 47 233 26 297 26 c 9
 297 0 l 25
 36 0 l 25
 36 26 l 17
 100 26 136 47 136 97 c 10
 136 586 l 18
 136 610 108 674 36 674 c 9
 36 700 l 25
 191 700 l 25
 677 162 l 25
 677 603 l 18x78
EndSplineSet
EndChar

StartChar: O
Encoding: 79 79 14
Width: 830
Flags: W
HStem: -12 43<329.375 507.553> 667 43<317.884 506.483>
VStem: 58 110<226.939 471.062> 662 110<232.762 469.863>
LayerCount: 2
Fore
SplineSet
406 667 m 24
 253 667 168 511 168 358 c 24
 168 193 263 31 414 31 c 4
 583 31 662 194 662 347 c 24
 662 517 576 667 406 667 c 24
58 348 m 24
 58 545 203 710 400 710 c 24
 597 710 772 554 772 357 c 24
 772 159 618 -12 420 -12 c 24
 220 -12 58 148 58 348 c 24
EndSplineSet
EndChar

StartChar: P
Encoding: 80 80 15
Width: 566
Flags: W
HStem: 0 26<36 105.289 243.394 311> 305 30<266 353.014> 667 33<224.515 333.512> 674 26<36 104.456>
VStem: 124 100<37.5783 662.714> 422 110<415.82 589.687>
LayerCount: 2
Fore
SplineSet
224 665 m 1xec
 224 107 l 2
 224 38 240 26 311 26 c 9
 311 0 l 25
 36 0 l 25
 36 26 l 17
 100 26 124 32 124 97 c 10
 124 607 l 18
 124 659 108 674 36 674 c 9
 36 700 l 17xdc
 288 700 l 2
 410 700 532 637 532 502 c 0
 532 382 422 305 306 305 c 24
 290 305 281 306 265 307 c 25
 266 336 l 17
 274 335 279 335 287 335 c 24
 369 335 422 386 422 492 c 0
 422 612 353 667 258 667 c 24
 245 667 235 667 224 665 c 1xec
EndSplineSet
EndChar

StartChar: Q
Encoding: 81 81 16
Width: 830
Flags: W
HStem: -235 66<660.5 767.072> 667 43<317.884 506.483>
VStem: 58 110<229.019 471.062> 662 110<233.517 469.863>
LayerCount: 2
Fore
SplineSet
406 667 m 24
 253 667 168 511 168 358 c 24
 168 193 263 31 414 31 c 0
 583 31 662 194 662 347 c 24
 662 517 576 667 406 667 c 24
525 5 m 1
 525 5 700 -169 752 -169 c 0
 766 -169 777 -166 788 -162 c 9
 802 -177 l 17
 786 -208 742 -235 694 -235 c 4
 627 -235 454 -39 398 -11 c 1
 208 0 58 155 58 348 c 8
 58 545 203 710 400 710 c 24
 597 710 772 554 772 357 c 16
 772 196 670 53 525 5 c 1
EndSplineSet
EndChar

StartChar: R
Encoding: 82 82 17
Width: 724
Flags: W
HStem: 0 26<36 105.289 243.394 311 649.537 694> 340 45<224 302> 665 35<224 357.021> 674 26<36 104.456>
VStem: 124 100<37.5783 340 385 662.714> 435 110<444.629 599.638>
LayerCount: 2
Fore
SplineSet
301 342 m 1025xcc
224 340 m 1
 224 107 l 2
 224 38 240 26 311 26 c 1
 311 0 l 1
 36 0 l 1
 36 26 l 1
 100 26 124 32 124 97 c 2
 124 607 l 2
 124 659 108 674 36 674 c 1
 36 700 l 1xdc
 288 700 l 2xec
 410 700 545 654 545 519 c 0
 545 438 483 385 399 359 c 1
 566 116 l 2
 598 70 651 26 694 26 c 1
 694 0 l 1
 533 0 l 1
 302 340 l 1
 224 340 l 1
243 665 m 2xec
 224 665 l 1
 224 385 l 1
 256 385 l 2
 376 385 435 427 435 509 c 4
 435 624 376 665 243 665 c 2xec
EndSplineSet
EndChar

StartChar: S
Encoding: 83 83 18
Width: 483
Flags: W
HStem: -11 42<144.792 292.932> 668 42<191.504 322.54>
VStem: 40 24<140.676 172> 61 82<487.15 612.223> 354 89<111.175 228.376> 379 24<563 593.485>
LayerCount: 2
Fore
SplineSet
214 -11 m 28xd8
 152 -11 103 6 60 27 c 13
 40 172 l 29
 64 172 l 21
 90 84 139 31 222 31 c 28
 298 31 354 87 354 163 c 4xe8
 354 324 61 300 61 519 c 4
 61 649 163 710 251 710 c 4
 332 710 340 704 385 697 c 13
 403 563 l 29
 379 563 l 21xd4
 362 619 323 668 257 668 c 28
 193 668 143 619 143 555 c 28
 143 374 443 414 443 202 c 4
 443 79 337 -11 214 -11 c 28xd8
EndSplineSet
EndChar

StartChar: T
Encoding: 84 84 19
Width: 694
Flags: W
HStem: 0 26<210 279.289 416.711 486> 656 44<85.125 298 398 607.889>
VStem: 33 27<571 619.986> 298 100<36.2463 656> 624 27<571 630.904>
LayerCount: 2
Fore
SplineSet
398 97 m 2
 398 32 422 26 486 26 c 9
 486 0 l 25
 210 0 l 25
 210 26 l 17
 274 26 298 32 298 97 c 10
 298 656 l 25
 180 656 l 22
 79 656 68 629 60 571 c 13
 33 571 l 29
 43 726 l 21
 65 726 l 5
 65 726 65 700 130 700 c 6
 566 700 l 2
 631 700 639 726 639 726 c 1
 661 726 l 9
 651 571 l 25
 624 571 l 17
 624 639 606 656 516 656 c 10
 398 656 l 25
 398 97 l 2
EndSplineSet
EndChar

StartChar: U
Encoding: 85 85 20
Width: 780
Flags: W
HStem: -10 43<319.078 501.039> 674 26<36 104.456 243.544 312 494 565.628 672.722 744>
VStem: 124 100<138.869 662.714> 589 60<129.641 660>
LayerCount: 2
Fore
SplineSet
124 607 m 18
 124 659 108 674 36 674 c 9
 36 700 l 25
 312 700 l 25
 312 674 l 17
 240 674 224 659 224 607 c 10
 224 276 l 18
 224 104 289 33 413 33 c 0
 551 33 589 142 589 240 c 10
 589 607 l 18
 589 659 566 674 494 674 c 9
 494 700 l 25
 744 700 l 25
 744 674 l 17
 672 674 650 659 649 607 c 9
 649 260 l 18
 649 51 538 -10 391 -10 c 4
 249 -10 124 45 124 256 c 10
 124 607 l 18
EndSplineSet
EndChar

StartChar: V
Encoding: 86 86 21
Width: 775
Flags: W
HStem: -10 21G<368.156 422.878> 674 26<36 88.1595 238.336 301 529 591.275 699.557 739>
LayerCount: 2
Fore
SplineSet
36 700 m 25
 301 700 l 25
 301 674 l 17
 282 674 231 669 231 650 c 0
 231 645 232 640 235 632 c 10
 425 129 l 25
 603 598 l 18
 606 606 612 623 612 639 c 0
 612 664 550 674 529 674 c 9
 529 700 l 25
 739 700 l 25
 739 674 l 21
 704 673 674 647 660 612 c 10
 415 -10 l 25
 376 -10 l 25
 134 607 l 18
 118 647 86 674 36 674 c 9
 36 700 l 25
EndSplineSet
EndChar

StartChar: W
Encoding: 87 87 22
Width: 1080
Flags: W
HStem: -10 21G<368.156 424.32 672.224 727.878> 674 26<36 88.1595 238.336 301 325 372.827 511.443 550 574 636.275 744.557 784 834 896.275 1004.56 1044>
LayerCount: 2
Fore
SplineSet
36 700 m 1
 301 700 l 1
 301 674 l 1
 282 674 231 669 231 650 c 0
 231 645 232 640 235 632 c 2
 436 129 l 1
 530 336 l 1
 411 607 l 1
 395 647 375 674 325 674 c 5
 325 700 l 5
 550 700 l 5
 550 674 l 5
 531 674 508 669 508 650 c 0
 508 645 509 640 512 632 c 2
 586 461 l 1
 648 598 l 2
 651 606 657 623 657 639 c 0
 657 664 595 674 574 674 c 1
 574 700 l 1
 784 700 l 1
 784 674 l 1
 749 673 719 647 705 612 c 1
 609 407 l 1
 730 129 l 1
 908 598 l 2
 911 606 917 623 917 639 c 0
 917 664 855 674 834 674 c 1
 834 700 l 1
 1044 700 l 1
 1044 674 l 1
 1009 673 979 647 965 612 c 2
 720 -10 l 1
 681 -10 l 1
 552 284 l 1
 415 -10 l 1
 376 -10 l 1
 134 607 l 2
 118 647 86 674 36 674 c 1
 36 700 l 1
EndSplineSet
EndChar

StartChar: X
Encoding: 88 88 23
Width: 789
Flags: W
HStem: 0 26<36 90.0345 203.49 272 494 548.612 704.87 753> 674 26<36 89.7338 253.736 311 496 552.19 675.918 733>
LayerCount: 2
Fore
SplineSet
36 700 m 5
 311 700 l 5
 311 674 l 5
 286 674 243 665 243 647 c 4
 243 641 248 633 251 629 c 6
 405 422 l 5
 544 602 l 6
 551 611 560 625 560 642 c 4
 560 670 527 674 496 674 c 5
 496 700 l 5
 733 700 l 5
 733 674 l 5
 673 674 624 633 608 612 c 6
 434 382 l 5
 662 76 l 6
 667 70 698 26 753 26 c 5
 753 0 l 5
 494 0 l 5
 494 26 l 5
 531 26 550 28 550 46 c 4
 550 62 527 92 527 92 c 5
 373 301 l 5
 225 106 l 5
 225 106 196 71 196 53 c 4
 196 32 230 26 272 26 c 5
 272 0 l 5
 36 0 l 5
 36 26 l 5
 61 26 104 30 158 100 c 6
 343 341 l 5
 140 617 l 6
 119 646 84 674 36 674 c 5
 36 700 l 5
EndSplineSet
EndChar

StartChar: Y
Encoding: 89 89 24
Width: 742
Flags: W
HStem: 0 26<250 319.289 457.097 526> 674 26<36 90.7435 243.388 299 509 573.553 669.521 706>
VStem: 338 100<36.2463 341>
LayerCount: 2
Fore
SplineSet
438 97 m 2
 439 32 462 26 526 26 c 9
 526 0 l 25
 250 0 l 25
 250 26 l 17
 314 26 338 32 338 97 c 10
 337 341 l 25
 128 629 l 22
 112 651 83 674 36 674 c 9
 36 700 l 25
 299 700 l 25
 299 674 l 17
 275 674 240 673 240 651 c 0
 240 643 245 632 245 632 c 25
 414 395 l 25
 568 607 l 25
 568 607 582 627 582 642 c 24
 582 673 542 674 509 674 c 9
 509 700 l 25
 706 700 l 25
 706 674 l 17
 686 674 662 661 640 632 c 10
 435 356 l 25
 438 97 l 2
EndSplineSet
EndChar

StartChar: Z
Encoding: 90 90 25
Width: 624
Flags: W
HStem: 0 55<137 511.897> 658 42<80.3342 453>
VStem: 25 27<571 620.067> 575 24<138.31 161.042>
LayerCount: 2
Fore
SplineSet
172 658 m 5
 71 656 60 629 52 571 c 13
 25 571 l 29
 35 726 l 21
 57 726 l 5
 57 726 57 700 122 700 c 6
 567 700 l 17
 567.046875 658 l 1
 137 55 l 1
 362 55 l 2
 485 55 536 58 575 166 c 9
 599 159 l 25
 557 0 l 25
 27 0 l 17
 26.8681640625 55 l 0
 453 658 l 1
 172 658 l 5
EndSplineSet
EndChar

StartChar: a
Encoding: 97 97 27
Width: 481
Flags: W
HStem: -10 55<144.611 234.616 349.5 433.229> 408 52<185.152 277.338>
VStem: 40 85<65.0711 153.506> 299 85<88.6912 232 265.061 350>
LayerCount: 2
Fore
SplineSet
299 232 m 17
 284 226 125 199 125 116 c 24
 125 76 155 45 195 45 c 24
 241 45 285 93 299 114 c 9
 299 232 l 17
255 460 m 4
 379 460 384 350 384 350 c 25
 384 92 l 18
 384 70 388 50 418 50 c 0
 433 50 442 53 454 63 c 9
 466 45 l 17
 445 16 412 -10 368 -10 c 24
 331 -10 302 16 302 62 c 1
 273 34 220 -10 153 -10 c 24
 99 -10 40 39 40 93 c 24
 40 214 264 255 299 273 c 9
 299 322 l 18
 299 354 293 408 210 408 c 0
 109 408 155 299 78 299 c 0
 64 299 52 300 52 314 c 0
 52 408 242 460 255 460 c 4
EndSplineSet
EndChar

StartChar: b
Encoding: 98 98 28
Width: 537
Flags: W
HStem: -10 42<199.27 337.755> 0 21G<66 92> 408 52<223.444 337.601> 699 17<20 41.2029>
VStem: 77 85<66.5143 365.994 392 680.965> 407 85<141.663 326.524>
LayerCount: 2
Fore
SplineSet
271 408 m 24xbc
 229 408 179 367 162 343 c 9
 162 134 l 18
 162 67 205 32 268 32 c 24
 365 32 407 124 407 221 c 24
 407 314 364 408 271 408 c 24xbc
307 460 m 24
 419 460 492 360 492 239 c 0
 492 112 384 -10 249 -10 c 0xbc
 166 -10 144 14 115 14 c 0
 102 14 94 5 90 0 c 9
 66 0 l 25x7c
 66 0 77 76 77 145 c 10
 77 628 l 22
 77 686 25 699 20 699 c 13
 20 716 l 21
 65 725 113 746 135 765 c 13
 162 765 l 29
 162 392 l 17
 210 433 243 460 307 460 c 24
EndSplineSet
EndChar

StartChar: c
Encoding: 99 99 29
Width: 461
Flags: W
HStem: -10 58<196.241 336.905> 347 21G<361 395> 408 52<200.811 330.677>
VStem: 45 85<124.304 312.326>
LayerCount: 2
Fore
SplineSet
293 460 m 24
 349 460 420 445 420 389 c 24
 420 367 406 347 384 347 c 0
 338 347 350 408 269 408 c 0
 186 408 130 327 130 244 c 0
 130 115 180 48 269 48 c 0
 333 48 380 82 416 112 c 9
 431 91 l 17
 420 66 344 -10 245 -10 c 0
 129 -10 45 86 45 210 c 0
 45 348 155 460 293 460 c 24
EndSplineSet
EndChar

StartChar: d
Encoding: 100 100 30
Width: 556
Flags: W
HStem: -10 42<201.258 318.891> 32 21<496.883 536> 408 52<202.82 352.233> 699 17<325 346.203>
VStem: 45 85<119.204 304.896> 382 85<94.5582 377.5 442 680.965>
LayerCount: 2
Fore
SplineSet
382 299 m 22xbc
 382 363 360 408 281 408 c 4
 189 408 130 341 130 242 c 4
 130 128 173 32 266 32 c 4
 341 32 382 110 382 185 c 14
 382 299 l 22xbc
467 92 m 22
 467 53 478 53 536 53 c 13
 536 32 l 21x7c
 468 18 418 -10 397 -10 c 4
 393 -10 389 -5 389 7 c 4
 389 26 392 57 392 63 c 5
 358 28 299 -10 233 -10 c 4
 111 -10 45 89 45 202 c 4
 45 348 164 460 302 460 c 28
 335 460 365 448 382 442 c 13
 382 628 l 22
 382 686 330 699 325 699 c 13
 325 716 l 21
 370 725 418 746 440 765 c 13
 467 765 l 29
 467 92 l 22
EndSplineSet
EndChar

StartChar: e
Encoding: 101 101 31
Width: 461
Flags: W
HStem: -10 58<196.241 336.905> 281 42<139 341.915> 418 42<183.542 322.897>
VStem: 45 85<124.304 279.426> 342 86<305 381.766>
LayerCount: 2
Fore
SplineSet
139 323 m 9
 310 323 l 18
 335 323 342 329 342 347 c 0
 342 396 309 418 256 418 c 0
 193 418 149 385 139 323 c 9
134 281 m 1
 132 269 130 256 130 244 c 0
 130 115 180 48 269 48 c 0
 333 48 380 82 416 112 c 1
 431 91 l 1
 420 66 344 -10 245 -10 c 0
 129 -10 45 86 45 210 c 0
 45 348 128 460 266 460 c 0
 379 460 428 363 428 313 c 0
 428 297 426 281 402 281 c 2
 134 281 l 1
EndSplineSet
EndChar

StartChar: f
Encoding: 102 102 32
Width: 344
Flags: W
HStem: 0 26<32 94.4845 204.515 267> 385 49<191 317> 696 69<243.242 335.111>
VStem: 107 84<32.5242 385 444 577.271>
LayerCount: 2
Fore
SplineSet
192 97 m 2
 192 32 203 26 267 26 c 1
 267 0 l 1
 32 0 l 1
 32 26 l 1
 96 26 107 32 107 97 c 2
 107 385 l 1
 41 385 l 1
 41 409 l 1
 107 444 l 1
 107 624 212 765 314 765 c 0
 337 765 354 744 354 721 c 0
 354 701 343 680 323 680 c 0
 297 680 300 696 257 696 c 0
 194 696 191 584 191 434 c 1
 317 434 l 5
 317 385 l 1
 191 385 l 1
 192 97 l 2
EndSplineSet
EndChar

StartChar: g
Encoding: 103 103 33
Width: 515
Flags: W
HStem: -235 47<155.576 344.876> 5 65<167.655 370.228> 150 36<200.861 299.432> 386 46<406 495> 424 36<187.942 293.7>
VStem: 45 70<-151.911 -42.6111> 66 85<235.658 381.197> 76 85<77.8314 132.529> 341 85<235.519 380.57> 421 72<-123.451 -37.4245>
LayerCount: 2
Fore
SplineSet
268 5 m 0xe440
 197 5 115 -20 115 -101 c 0
 115 -166 188 -188 253 -188 c 0
 338 -188 421 -159 421 -89 c 0
 421 -54 392 5 268 5 c 0xe440
239 424 m 24xea80
 182 424 151 373 151 316 c 24
 151 252 189 186 253 186 c 24
 311 186 341 249 341 307 c 24
 341 369 301 424 239 424 c 24xea80
248 460 m 24
 316 460 331 446 401 432 c 9
 495 432 l 25
 495 385 l 25
 406 386 l 17
 420 368 426 345 426 316 c 0
 426 228 356 150 244 150 c 0
 222 150 196 154 181 159 c 1
 165 145 161 137 161 114 c 24xf180
 161 83 186 70 222 70 c 10
 354 70 l 18
 443 70 493 14 493 -45 c 0
 493 -181 330 -235 218 -235 c 0
 136 -235 45 -192 45 -110 c 0xf440
 45 -70 64 -19 150 21 c 1
 105 31 76 47 76 94 c 0xf1
 76 106 77 115 80 127 c 9
 149 173 l 17
 90 202 66 247 66 307 c 24
 66 401 154 460 248 460 c 24
EndSplineSet
EndChar

StartChar: h
Encoding: 104 104 34
Width: 610
Flags: W
HStem: 0 26<40 102.485 212.515 275 330 392.485 502.902 565> 395 65<293.158 383.611> 699 17<58 79.2029>
VStem: 115 85<31.9056 353.801 386 680.965> 405 85<32.5242 372.25>
LayerCount: 2
Fore
SplineSet
200 97 m 2
 200 32 211 26 275 26 c 1
 275 0 l 1
 40 0 l 1
 40 26 l 1
 104 26 115 32 115 97 c 2
 115 628 l 6
 115 686 63 699 58 699 c 5
 58 716 l 5
 103 725 151 746 173 765 c 5
 200 765 l 5
 200 386 l 1
 224 401 311 460 370 460 c 0
 447 460 490 412 490 300 c 2
 490 97 l 1
 491 32 501 26 565 26 c 1
 565 0 l 1
 330 0 l 1
 330 26 l 1
 394 26 405 32 405 97 c 2
 405 306 l 2
 405 376 368 395 319 395 c 0
 271 395 231 360 200 338 c 1
 200 97 l 2
EndSplineSet
EndChar

StartChar: i
Encoding: 105 105 35
Width: 315
Flags: W
HStem: 0 26<40 102.485 212.515 275> 394 17<58 79.2029> 440 20G<162 200> 616 100<114.285 199.715>
VStem: 107 100<623.285 708.715> 115 85<31.9056 375.965>
LayerCount: 2
Fore
SplineSet
157 716 m 0xf8
 187 716 207 696 207 666 c 0
 207 636 187 616 157 616 c 0
 127 616 107 636 107 666 c 0
 107 696 127 716 157 716 c 0xf8
200 97 m 2xf4
 200 32 211 26 275 26 c 9
 275 0 l 25
 40 0 l 25
 40 26 l 17
 104 26 115 32 115 97 c 10
 115 323 l 18
 115 381 63 394 58 394 c 9
 58 411 l 17
 103 420 151 441 173 460 c 9
 200 460 l 25
 200 97 l 2xf4
EndSplineSet
EndChar

StartChar: j
Encoding: 106 106 36
Width: 315
Flags: W
HStem: 394 17<58 79.2029> 440 20G<162 200> 616 100<114.285 199.715>
VStem: 107 100<623.285 708.715> 115 85<-141.335 375.965>
LayerCount: 2
Fore
SplineSet
157 716 m 4xf0
 187 716 207 696 207 666 c 4
 207 636 187 616 157 616 c 4
 127 616 107 636 107 666 c 4
 107 696 127 716 157 716 c 4xf0
200 -45 m 2xe8
 200 -110 181 -199 37 -240 c 9
 29 -205 l 17
 106 -176 115 -140 115 -75 c 10
 115 323 l 18
 115 381 63 394 58 394 c 9
 58 411 l 17
 103 420 151 441 173 460 c 9
 200 460 l 25
 200 -45 l 2xe8
EndSplineSet
EndChar

StartChar: k
Encoding: 107 107 37
Width: 558
Flags: W
HStem: 0 26<40 102.485 212.515 275 492.91 543> 214 36<200 219> 434 26<339 388.329 477.771 536> 699 17<58 79.2029>
VStem: 115 85<31.9056 214 250 680.965>
LayerCount: 2
Fore
SplineSet
200 97 m 2
 200 32 211 26 275 26 c 1
 275 0 l 1
 40 0 l 1
 40 26 l 1
 104 26 115 32 115 97 c 2
 115 628 l 2
 115 686 63 699 58 699 c 1
 58 716 l 1
 103 725 151 746 173 765 c 1
 200 765 l 5
 200 250 l 1
 211 250 l 2
 219 250 228 250 238 260 c 2
 376 391 l 2
 389 403 390 408 390 415 c 0
 390 432 360 434 339 434 c 1
 339 460 l 1
 536 460 l 1
 536 434 l 1
 486 434 450 407 440 398 c 2
 290 258 l 1
 464 61 l 2
 485 37 518 26 543 26 c 1
 543 0 l 1
 398 0 l 1
 219 214 l 1
 200 214 l 1
 200 97 l 2
EndSplineSet
EndChar

StartChar: l
Encoding: 108 108 38
Width: 315
Flags: W
HStem: 0 26<40 102.485 212.515 275> 699 17<58 79.2029>
VStem: 115 85<31.9056 680.965>
LayerCount: 2
Fore
SplineSet
200 97 m 2
 200 32 211 26 275 26 c 9
 275 0 l 25
 40 0 l 25
 40 26 l 17
 104 26 115 32 115 97 c 10
 115 628 l 22
 115 686 63 699 58 699 c 13
 58 716 l 21
 103 725 151 746 173 765 c 13
 200 765 l 29
 200 97 l 2
EndSplineSet
EndChar

StartChar: m
Encoding: 109 109 39
Width: 870
Flags: W
HStem: 0 26<50 112.485 222.515 285 328 390.485 500.902 563 610 672.485 782.902 845> 394 17<68 89.2029> 395 65<294.717 381.706 568.852 663.611>
VStem: 125 85<31.9056 354.938> 403 85<32.5242 349.295> 685 85<32.5242 372.25>
LayerCount: 2
Fore
SplineSet
210 97 m 2xbc
 210 32 221 26 285 26 c 1
 285 0 l 1
 50 0 l 1
 50 26 l 1
 114 26 125 32 125 97 c 2
 125 323 l 2
 125 381 73 394 68 394 c 1
 68 411 l 1xdc
 113 420 161 441 183 460 c 1
 210 460 l 1
 210 386 l 1
 234 401 309 460 368 460 c 0
 420 460 457 438 475 390 c 1
 507 409 595 460 650 460 c 0
 727 460 770 412 770 300 c 2
 770 97 l 1
 771 32 781 26 845 26 c 1
 845 0 l 1
 610 0 l 1
 610 26 l 1
 674 26 685 32 685 97 c 2
 685 306 l 2
 685 376 648 395 599 395 c 0
 558 395 516 371 485 350 c 1
 487 335 488 318 488 300 c 2
 488 97 l 1
 489 32 499 26 563 26 c 1
 563 0 l 1
 328 0 l 1
 328 26 l 1
 392 26 403 32 403 97 c 2
 403 306 l 2
 403 376 366 395 317 395 c 0
 269 395 241 360 210 338 c 1
 210 97 l 2xbc
EndSplineSet
EndChar

StartChar: n
Encoding: 110 110 40
Width: 600
Flags: W
HStem: 0 26<50 112.485 222.515 285 340 402.485 512.902 575> 394 17<68 89.2029> 395 65<303.158 393.611>
VStem: 125 85<31.9056 353.042> 415 85<32.5242 372.25>
LayerCount: 2
Fore
SplineSet
210 97 m 6xb8
 210 32 221 26 285 26 c 5
 285 0 l 5
 50 0 l 5
 50 26 l 5
 114 26 125 32 125 97 c 6
 125 323 l 6
 125 381 73 394 68 394 c 5
 68 411 l 5xd8
 113 420 161 441 183 460 c 5
 210 460 l 5
 210 386 l 5
 234 401 321 460 380 460 c 4
 457 460 500 412 500 300 c 6
 500 97 l 5
 501 32 511 26 575 26 c 5
 575 0 l 5
 340 0 l 5
 340 26 l 5
 404 26 415 32 415 97 c 6
 415 306 l 6
 415 376 378 395 329 395 c 4
 281 395 241 360 210 338 c 5
 210 97 l 6xb8
EndSplineSet
EndChar

StartChar: o
Encoding: 111 111 41
Width: 558
Flags: W
HStem: -10 42<211.664 346.756> 418 42<206.357 337.541>
VStem: 45 100<123.307 317.528> 413 100<131.276 324.534>
LayerCount: 2
Fore
SplineSet
271 418 m 24
 175 418 145 324 145 228 c 24
 145 129 179 32 278 32 c 24
 375 32 413 121 413 218 c 24
 413 317 370 418 271 418 c 24
278 460 m 24
 408 460 513 358 513 228 c 24
 513 98 401 -10 271 -10 c 28
 145 -10 45 92 45 218 c 24
 45 349 147 460 278 460 c 24
EndSplineSet
EndChar

StartChar: p
Encoding: 112 112 42
Width: 565
Flags: W
HStem: -235 26<30 92.4845 202.515 265> -10 42<226.428 365.755> 394 17<48 69.2029> 408 52<251.444 365.601>
VStem: 105 85<-203.094 8 66.5143 365.168> 435 85<141.663 326.524>
LayerCount: 2
Fore
SplineSet
299 408 m 24xdc
 257 408 207 367 190 343 c 9
 190 134 l 18
 190 67 233 32 296 32 c 24
 393 32 435 124 435 221 c 24
 435 314 392 408 299 408 c 24xdc
190 -138 m 6
 190 -203 201 -209 265 -209 c 13
 265 -235 l 29
 30 -235 l 29
 30 -209 l 21
 94 -209 105 -203 105 -138 c 14
 105 323 l 18
 105 381 53 394 48 394 c 9
 48 411 l 17xec
 93 420 141 441 163 460 c 9
 190 460 l 17
 190 392 l 17
 238 433 271 460 335 460 c 24
 447 460 520 360 520 239 c 0
 520 112 412 -10 277 -10 c 0
 227 -10 214 0 190 8 c 9
 190 -138 l 6
EndSplineSet
EndChar

StartChar: q
Encoding: 113 113 43
Width: 561
Flags: W
HStem: -235 26<311 373.485 483.515 546> -10 42<201.258 316.195> 408 52<202.82 352.021> 430 20G<445 471>
VStem: 45 85<119.204 304.896> 386 85<-203.094 63 103.631 371.878>
LayerCount: 2
Fore
SplineSet
382 299 m 18xec
 382 363 360 408 281 408 c 0
 189 408 130 341 130 242 c 0
 130 128 173 32 266 32 c 0
 341 32 382 110 382 185 c 10
 382 299 l 18xec
377 443 m 0
 390 436 403 428 416 428 c 0
 439 428 443 450 447 450 c 2
 471 450 l 21xdc
 471 -138 l 2
 471 -203 482 -209 546 -209 c 9
 546 -235 l 25
 311 -235 l 25
 311 -209 l 17
 375 -209 386 -203 386 -138 c 10
 386 63 l 17
 352 28 299 -10 233 -10 c 0
 111 -10 45 89 45 202 c 0
 45 348 164 460 302 460 c 24
 335 460 351 456 377 443 c 0
EndSplineSet
EndChar

StartChar: r
Encoding: 114 114 44
Width: 402
Flags: W
HStem: 0 26<40 102.485 212.515 275> 370 90<265.611 354.816> 394 17<58 79.2029>
VStem: 115 85<31.9056 342.703>
LayerCount: 2
Fore
SplineSet
200 97 m 2xd0
 200 32 211 26 275 26 c 1
 275 0 l 1
 40 0 l 1
 40 26 l 1
 104 26 115 32 115 97 c 2
 115 323 l 2
 115 381 63 394 58 394 c 1
 58 411 l 1xb0
 103 420 151 441 173 460 c 1
 200 460 l 1
 200 362 l 1
 233 404 264 460 325 460 c 4
 354 460 382 441 382 407 c 0
 382 379 370 355 339 355 c 0
 318 355 303 370 279 370 c 0
 253 370 212 355 200 299 c 1
 200 97 l 2xd0
EndSplineSet
EndChar

StartChar: s
Encoding: 115 115 45
Width: 406
Flags: W
HStem: -10 42<126.943 253.236> 340 21G<302.5 328> 417 42<147.805 271.274>
VStem: 50 21<110.812 141.333> 51 83<309.346 394.095> 274 82<62.5559 144.378> 307 21<340 368.668>
LayerCount: 2
Fore
SplineSet
180 -10 m 24xec
 132 -10 83 14 62 23 c 9
 50 140 l 25
 71 144 l 17
 87 75 128 32 198 32 c 24
 241 32 274 57 274 100 c 0xf4
 274 194 51 201 51 321 c 0
 51 412 130 459 210 459 c 24
 256 459 285 446 324 434 c 9
 328 340 l 25
 307 340 l 17xea
 298 388 256 417 201 417 c 24
 159 417 134 393.241210938 134 360 c 7
 134 246 356 272 356 131 c 0
 356 44 267 -10 180 -10 c 24xec
EndSplineSet
EndChar

StartChar: t
Encoding: 116 116 46
Width: 352
Flags: W
HStem: -10 55<161.5 270.102> 385 49<185 332>
VStem: 101 84<57.8444 385> 160 24<521.452 545>
LayerCount: 2
Fore
SplineSet
185 434 m 9xe0
 332 434 l 29
 332 385 l 25
 185 385 l 25
 186 141 l 2
 186 76 197 45 240 45 c 27
 271 45 298 60 318 74 c 9
 330 56 l 17
 308 36 254 -10 196 -10 c 3
 127 -10 101 32 101 97 c 10
 101 385 l 25xe0
 35 385 l 1
 35 409 l 17
 112 454 143 505 160 545 c 1
 184 545 l 25xd0
 185 434 l 9xe0
EndSplineSet
EndChar

StartChar: u
Encoding: 117 117 47
Width: 593
Flags: W
HStem: -10 55<186.5 325.401> 32 21<513.883 553> 408 26<40 78.0255 324 362.025> 440 20G<76.9231 200 360.923 484>
VStem: 115 85<72.2735 387.148> 399 85<87.0437 387.148>
LayerCount: 2
Fore
SplineSet
115 122 m 10xbc
 115 365 l 2
 115 377 76 402 40 408 c 9
 40 434 l 25
 200 460 l 25
 200 162 l 18
 200 89 221 45 276 45 c 24xbc
 331 45 359 73 399 104 c 9
 399 365 l 2
 399 377 360 402 324 408 c 9
 324 434 l 25
 484 460 l 25
 484 92 l 18
 484 53 495 53 553 53 c 9
 553 32 l 17x7c
 485 18 435 -10 414 -10 c 0
 410 -10 406 -5 406 7 c 0
 406 26 409 57 409 63 c 1
 375 28 297 -10 219 -10 c 24
 154 -10 115 30 115 122 c 10xbc
EndSplineSet
EndChar

StartChar: v
Encoding: 118 118 48
Width: 483
Flags: W
HStem: -10 21G<210.914 254.71> 408 26<10 41.9535 163.698 212 307 341.054 434.18 468>
LayerCount: 2
Fore
SplineSet
10 434 m 29
 212 434 l 29
 212 408 l 21
 198 408 154 406 154 374 c 7
 154 371 155.290039062 365.870117188 156 364 c 14
 260 116 l 25
 350 323 l 22
 355.8203125 338.069335938 359 354.944335938 359 364 c 7
 359 387 331 408 307 408 c 13
 307 434 l 29
 468 434 l 29
 468 408 l 21
 443 408 417.405273438 385.163085938 408 362 c 14
 246 -10 l 25
 219 -10 l 25
 69 361 l 22
 54.658203125 398.517578125 19 408 10 408 c 13
 10 434 l 29
EndSplineSet
EndChar

StartChar: w
Encoding: 119 119 49
Width: 761
Flags: W
HStem: -10 21G<210.914 254.861 488.775 532.71> 408 26<10 41.9535 163.698 212 288 319.954 441.698 490 585 619.054 712.18 746>
LayerCount: 2
Fore
SplineSet
10 434 m 5
 212 434 l 5
 212 408 l 5
 198 408 154 406 154 374 c 4
 154 371 155.290039062 365.870117188 156 364 c 6
 260 116 l 1
 350 323 l 6
 352.071289062 328.361328125 353.807617188 333.951171875 355.185546875 339.3359375 c 6
 347 361 l 6
 332.658203125 398.517578125 297 408 288 408 c 5
 288 434 l 5
 307 434 l 5
 468 434 l 5
 490 434 l 5
 490 408 l 5
 476 408 432 406 432 374 c 4
 432 371 433.290039062 365.870117188 434 364 c 6
 538 116 l 1
 628 323 l 6
 633.8203125 338.069335938 637 354.944335938 637 364 c 4
 637 387 609 408 585 408 c 5
 585 434 l 5
 746 434 l 5
 746 408 l 5
 721 408 695.405273438 385.163085938 686 362 c 6
 524 -10 l 1
 497 -10 l 1
 376.168945312 283.798828125 l 5
 246 -10 l 1
 219 -10 l 1
 69 361 l 6
 54.658203125 398.517578125 19 408 10 408 c 5
 10 434 l 5
EndSplineSet
EndChar

StartChar: x
Encoding: 120 120 50
Width: 534
Flags: W
HStem: 0 26<20 72.464 147.512 206 312 357.925 473.451 514> 397 37<338 383.983 452.528 514> 408 26<38 75.9963 210.485 245>
LayerCount: 2
Fore
SplineSet
20 0 m 1xc0
 20 26 l 1
 48 26 83 39 102 60 c 2
 231.446289062 201.28515625 l 1
 112 354 l 2
 96 373 78 408 38 408 c 5
 38 434 l 1
 245 434 l 1
 245 408 l 1xa0
 235 406 194 392 194 380 c 0
 194 378 194 372 202 363 c 2
 285.989257812 266.29296875 l 1
 373 357 l 2
 376 361 384 371.944335938 384 381 c 0
 384 392 361 396 338 397 c 1
 338 434 l 1
 514 434 l 1
 514 400 l 1
 475 400 459 389 424 351 c 2
 312.2734375 231.959960938 l 1
 460 52 l 2
 473 36 490 26 514 26 c 1
 514 0 l 1
 312 0 l 1
 312 26 l 1
 332 26 358 26 358 40 c 0
 358 45.384765625 355 51 352 55 c 2
 257.353515625 167.0546875 l 1
 160 65 l 2
 155 60 146 48 146 44 c 0
 146 28 180 26 206 26 c 1
 206 0 l 1
 20 0 l 1xc0
EndSplineSet
EndChar

StartChar: y
Encoding: 121 121 51
Width: 498
Flags: W
HStem: -235 112<77.6694 158.164> 408 26<25 56.9535 178.698 227 322 356.054 449.18 483>
LayerCount: 2
Fore
SplineSet
260 -10 m 9
 423 362 l 22
 432.405273438 385.163085938 458 408 483 408 c 13
 483 434 l 29
 322 434 l 29
 322 408 l 21
 346 408 374 387 374 364 c 7
 374 354.944335938 370.8203125 338.069335938 365 323 c 14
 275 116 l 25
 171 364 l 22
 170.290039062 365.870117188 169 371 169 374 c 7
 169 406 213 408 227 408 c 13
 227 434 l 29
 25 434 l 29
 25 408 l 21
 34 408 69.658203125 398.517578125 84 361 c 6
 223.420898438 18 l 9
 159 -135 l 17
 141 -123 133 -123 116 -123 c 27
 88 -123 65 -153 65 -181 c 27
 65 -209 83 -235 119 -235 c 3
 173 -235 200.524414062 -150.798828125 211 -126 c 2
 260 -10 l 9
EndSplineSet
EndChar

StartChar: z
Encoding: 122 122 52
Width: 455
Flags: W
HStem: 0 36<144 336.952> 391 42<108.063 288> 440 20G<61.9592 89.5>
VStem: 49 27<313 349.851> 64 24<437.426 460> 398 22<117.488 130.545>
LayerCount: 2
Fore
SplineSet
49 313 m 25xf4
 64 460 l 21
 88 460 l 5xec
 91 449 95 433 114 433 c 2
 400 433 l 9
 400 407 l 25
 144 36 l 25
 299 36 l 18
 343 36 385 111 398 136 c 9
 420 128 l 25
 392 0 l 25
 35 0 l 25
 35 26 l 25
 288 391 l 25
 160 391 l 18
 106 391 76 337 76 313 c 9
 49 313 l 25xf4
EndSplineSet
EndChar

StartChar: fi
Encoding: 174 64257 53
Width: 562
Flags: W
HStem: 0 26<32 94.4845 204.515 267 308 370.485 480.515 543> 385 49<191 370.924> 440 20G<430 468> 718 42<266.21 375.721>
VStem: 107 84<32.5242 385 444 582.909> 383 85<31.9056 373.236>
LayerCount: 2
Fore
SplineSet
468 97 m 2
 468 32 479 26 543 26 c 1
 543 0 l 1
 308 0 l 1
 308 26 l 1
 372 26 383 32 383 97 c 2
 383 323 l 2
 383 372 350 385 319 385 c 2
 191 385 l 1
 192 97 l 2
 192 32 203 26 267 26 c 1
 267 0 l 1
 32 0 l 1
 32 26 l 1
 96 26 107 32 107 97 c 2
 107 385 l 1
 41 385 l 1
 41 409 l 1
 107 444 l 5
 107 624 199 760 368 760 c 0
 452 760 481 701 481 678 c 0
 481 658 457 636 437 636 c 0
 381 636 407 718 319 718 c 0
 256 718 191 650 191 434 c 1
 319 434 l 2
 353 434 419 441 441 460 c 1
 468 460 l 1
 468 97 l 2
EndSplineSet
LCarets2: 1 0
Ligature2: "'liga' Standard Ligatures in Latin lookup 0-1" f i
EndChar

StartChar: dollar
Encoding: 36 36 55
Width: 483
Flags: W
HStem: -10.9763 42.3587<142.386 210 265 292.477> 667.755 42.1798<265 323.477>
VStem: 40 24<138.621 172> 61 82<483.539 612.183> 210 55<-90 -10.9763 37.4597 286.406 437.427 658.423 709.934 789> 354 89<110.793 229.158> 379 24<563 592.283>
LayerCount: 2
Fore
SplineSet
210 789 m 1xd8
 265 789 l 1
 265 709.934481846 l 1
 333.110559462 709.266121677 342.73815942 703.57406409 385 697 c 1
 403 563 l 1
 379 563 l 1xda
 362.698582639 616.698786601 326.168111384 663.961056053 265 667.754683987 c 1
 265 404.74208564 l 1
 348.061755045 360.772438865 443 321.260282314 443 202 c 0
 443 96.4255579215 364.906797611 15.1631505489 265 -5.74297932571 c 1
 265 -90 l 1
 210 -90 l 1
 210 -10.9763302227 l 1
 149.885720815 -10.263636373 102.071077457 6.4536598466 60 27 c 1
 40 172 l 1
 64 172 l 1xec
 88.7213661021 88.3276839621 134.236159223 36.2975394751 210 31.3824003073 c 1
 210 317.836293112 l 1
 135.926219868 359.648600444 61 408.254212461 61 519 c 0
 61 629.090509998 134.149815381 689.697321355 210 705.679016566 c 1
 210 789 l 1xd8
210 658.422962202 m 1
 170.129419712 641.146741652 143 602.142783783 143 555 c 0
 143 499.652281051 171.051982475 464.969522525 210 437.427119202 c 1
 210 658.422962202 l 1
265 37.4597449731 m 1
 318.199483415 54.2528980308 354 102.233499625 354 163 c 0xcc
 354 221.919299509 314.759817545 256.062374601 265 286.406007311 c 1
 265 37.4597449731 l 1
EndSplineSet
EndChar

StartChar: bracketleft
Encoding: 91 91 56
Width: 255
Flags: W
VStem: 100 110
LayerCount: 2
Fore
SplineSet
100 820 m 5
 100 -54 l 5
 210 -54 l 5
 210 0 l 5
 155 0 l 5
 155 765 l 5
 210 765 l 5
 210 820 l 5
 100 820 l 5
EndSplineSet
EndChar

StartChar: bracketright
Encoding: 93 93 57
Width: 255
Flags: W
HStem: -54 54<45 100> 765 55<45 100>
VStem: 45 110<-54 0 765 820> 100 55<0 765>
LayerCount: 2
Fore
SplineSet
155 820 m 5xe0
 155 -54 l 5
 45 -54 l 5
 45 0 l 5xe0
 100 0 l 5
 100 765 l 5xd0
 45 765 l 5
 45 820 l 5
 155 820 l 5xe0
EndSplineSet
EndChar

StartChar: comma
Encoding: 44 44 58
Width: 275
Flags: W
HStem: -188 26<48 80.9692>
VStem: 155 60<-83.5622 30.5>
LayerCount: 2
Fore
SplineSet
48 -188 m 21
 125 -188 215 -98 215 0 c 27
 215 61 175 120 114 120 c 27
 78 120 45 92 45 56 c 3
 45 -30 155 41 155 -44 c 3
 155 -108 84 -162 40 -162 c 13
 48 -188 l 21
EndSplineSet
EndChar

StartChar: period
Encoding: 46 46 59
Width: 280
Flags: W
HStem: -10 140<78.8428 181.157>
VStem: 60 140<8.84285 111.157>
LayerCount: 2
Fore
SplineSet
60 60 m 0
 60 100 90 130 130 130 c 0
 170 130 200 100 200 60 c 0
 200 20 170 -10 130 -10 c 4
 90 -10 60 20 60 60 c 0
EndSplineSet
EndChar
